# xmcd
#
# Track frame offsets: 
#        150
#        40368
#        60000
#        98542
#        122082
#
# Disc length: 2069 seconds
#
# Revision: 2
# Processed by: cddbd v1.5.2PL0 Copyright (c) Steve Scherf et al.
# Submitted via: ExactAudioCopy v0.95b4
#
DISCID=32081305
DTITLE=Baroness - Blue Record (Deluxe Edition CD2 Live at Roadburn Fes
DTITLE=tival 2009)
DYEAR=2009
DGENRE=Metal
TTITLE0=The Birthing
TTITLE1=Isak
TTITLE2=Rays on Pinion
TTITLE3=Wanderlust
TTITLE4=Grad
EXTD=
EXTT0=
EXTT1=
EXTT2=
EXTT3=
EXTT4=
PLAYORDER=
